<?xml version="1.0" encoding="UTF-8"?>
<svg xmlns="http://www.w3.org/2000/svg" id="line_icons" data-name="line icons" viewBox="0 0 74 74" width="512" height="512"><path d="M64.729,72H12.807A3.67,3.67,0,0,1,9.14,68.333V5.667A3.67,3.67,0,0,1,12.807,2H64.729A3.67,3.67,0,0,1,68.4,5.667V68.333A3.67,3.67,0,0,1,64.729,72ZM12.807,4A1.669,1.669,0,0,0,11.14,5.667V68.333A1.669,1.669,0,0,0,12.807,70H64.729A1.669,1.669,0,0,0,66.4,68.333V5.667A1.669,1.669,0,0,0,64.729,4Z"/><path d="M25.1,72H12.807A3.67,3.67,0,0,1,9.14,68.333V5.667A3.67,3.67,0,0,1,12.807,2H25.1a1,1,0,0,1,1,1V71A1,1,0,0,1,25.1,72ZM12.807,4A1.669,1.669,0,0,0,11.14,5.667V68.333A1.669,1.669,0,0,0,12.807,70H24.1V4Z"/><path d="M13.676,11.48H6.6a1,1,0,1,1,0-2h7.072a1,1,0,0,1,0,2Z"/><path d="M13.676,20.32H6.6a1,1,0,1,1,0-2h7.072a1,1,0,1,1,0,2Z"/><path d="M13.676,29.16H6.6a1,1,0,0,1,0-2h7.072a1,1,0,0,1,0,2Z"/><path d="M13.676,38H6.6a1,1,0,1,1,0-2h7.072a1,1,0,1,1,0,2Z"/><path d="M13.676,46.84H6.6a1,1,0,1,1,0-2h7.072a1,1,0,1,1,0,2Z"/><path d="M13.676,55.68H6.6a1,1,0,1,1,0-2h7.072a1,1,0,0,1,0,2Z"/><path d="M13.676,64.52H6.6a1,1,0,1,1,0-2h7.072a1,1,0,1,1,0,2Z"/><path d="M46.245,28.8c-3.772,0-6.959-3.529-6.959-7.707,0-4.555,2.861-7.736,6.959-7.736S53.2,16.537,53.2,21.092C53.2,25.27,50.018,28.8,46.245,28.8Zm0-13.443c-2.966,0-4.959,2.305-4.959,5.736,0,3.094,2.271,5.707,4.959,5.707S51.2,24.186,51.2,21.092C51.2,17.661,49.211,15.356,46.245,15.356Z"/><path d="M58.194,41.827H34.3a1,1,0,0,1-1-1v-2.35a8.646,8.646,0,0,1,8.62-8.461h.771a1,1,0,0,1,.574.181,5.212,5.212,0,0,0,5.962,0,1,1,0,0,1,.574-.181h.76a8.665,8.665,0,0,1,8.631,8.441v2.37A1,1,0,0,1,58.194,41.827Zm-22.892-2H57.194V38.486a6.574,6.574,0,0,0-6.631-6.47h-.458a7.227,7.227,0,0,1-7.714,0h-.469a6.633,6.633,0,0,0-6.62,6.477Z"/><path d="M61.548,50.967h-30.6a1,1,0,1,1,0-2h30.6a1,1,0,0,1,0,2Z"/><path d="M61.548,59.715h-30.6a1,1,0,0,1,0-2h30.6a1,1,0,0,1,0,2Z"/></svg>
