<svg id="OutlineExpand" enable-background="new 0 0 64 64" height="512" viewBox="0 0 64 64" width="512" xmlns="http://www.w3.org/2000/svg"><path d="m61 45h-6v-2h2c.553 0 1-.448 1-1v-6c0-.552-.447-1-1-1h-4.087l-1.898-20.868 3.924-10.79c.115-.317.063-.671-.139-.941s-.535-.424-.863-.399l-15.913.995-8.914-.99c-.12-.015-.238-.007-.352.023l-3.858.965-21.855-.994c-.29-.015-.58.104-.779.32-.2.216-.295.51-.258.803l1.986 15.891-1.989 20.89c-.011.113-.003.227.025.337l1.951 7.804-1.97 12.801c-.049.317.058.638.285.863.19.188.443.29.704.29.055 0 .109-.004.164-.014l11.493-1.916 1.636 1.636c.213.213.503.314.812.288l16.895-1.774v.78c0 .552.447 1 1 1h26c.553 0 1-.448 1-1v-15c0-.552-.447-1-1-1zm-8 0h-10v-2h10zm3-4h-16v-4h16zm-38.63 18.956-1.663-1.663c-.229-.229-.555-.336-.871-.279l-10.638 1.773 1.79-11.635c.021-.131.014-.266-.019-.395l-1.595-6.383 2.384.596.484-1.94-3.165-.791 1.856-19.495 2.067-.69 2.684.895.633-1.897-3-1c-.205-.068-.428-.068-.633 0l-1.843.614-1.701-13.613 20.815.946c.091.002.193-.006.287-.029l3.222-.805 1.456 2.912-.868 2.607 1.896.633 1-3c.084-.252.064-.526-.054-.764l-1.178-2.356 7.173.797c.057.008.116.009.173.004l14.476-.905-3.478 9.565c-.051.138-.069.286-.057.432l1.902 20.91h-11.905c-.553 0-1 .448-1 1v6c0 .552.447 1 1 1h2v2h-6c-.553 0-1 .448-1 1v12.209zm42.63.044h-24v-13h24z"/><path d="m27 43c.266 0 .52-.105.707-.293l9.971-9.971c4.722-4.722 7.322-11 7.322-17.677v-6.059c0-.404-.243-.769-.617-.924s-.804-.07-1.09.217l-25 25c-.188.187-.293.442-.293.707v7.586l-6.707 6.707 1.414 1.414 6.707-6.707zm-7-8.586 23-23v3.645c0 6.144-2.393 11.919-6.736 16.263l-9.678 9.678h-5.172l18.293-18.293-1.414-1.414-18.293 18.293z"/><path d="m28.445 49.168-2.445 1.63-2.445-1.63c-.336-.224-.773-.224-1.109 0l-2.446 1.63-2.445-1.63c-.336-.224-.773-.224-1.109 0l-3 2 1.109 1.664 2.445-1.63 2.445 1.63c.336.224.773.224 1.109 0l2.446-1.63 2.445 1.63c.168.112.362.168.555.168s.387-.056.555-.168l2.445-1.63 2.445 1.63 1.109-1.664-3-2c-.335-.224-.773-.224-1.109 0z"/></svg>